<svg xmlns="http://www.w3.org/2000/svg" version="1.1" xmlns:xlink="http://www.w3.org/1999/xlink" xmlns:svgjs="http://svgjs.com/svgjs" width="1440" height="560" preserveAspectRatio="none" viewBox="0 0 1440 560"><g mask="url(&quot;#SvgjsMask1075&quot;)" fill="none"><rect width="1440" height="560" x="0" y="0" fill="rgba(31, 31, 31, 1)"></rect><path d="M212.54936238736366 118.17565450921296L173.6721505470095 5.268032988749226 60.764529026545745 44.14524482910339 99.64174086689992 157.05286634956713z" fill="rgba(63, 63, 63, 0.4392156862745098)" class="triangle-float2"></path><path d="M540.2819974666506 349.8693764835602L446.66501324556367 343.32303923321365 440.11867599521713 436.9400234543006 533.7356602163042 443.48636070464715z" fill="rgba(63, 63, 63, 0.4392156862745098)" class="triangle-float3"></path><path d="M231.3851616846054 579.2982120319549L202.42280344292982 495.1854161833367 118.3100075943116 524.1477744250124 147.27236583598722 608.2605702736305z" fill="rgba(63, 63, 63, 0.4392156862745098)" class="triangle-float1"></path><path d="M714.785,749.657C778.94,752.3,836.356,711.966,868.359,656.301C900.256,600.82,902.945,532.895,871.426,477.199C839.437,420.672,779.7,382.769,714.785,384.922C653.023,386.971,603.367,432.04,575.167,487.027C549.473,537.128,555.236,594.776,581.666,644.492C610.116,698.009,654.227,747.163,714.785,749.657" fill="rgba(63, 63, 63, 0.4392156862745098)" class="triangle-float1"></path><path d="M190.257,655.905C233.359,657.226,280.393,647.861,302.143,610.626C324.026,573.162,307.676,528.314,287.094,490.119C265.017,449.15,236.753,405.002,190.257,402.992C141.376,400.879,99.636,437.314,77.747,481.071C57.988,520.57,65.747,566.977,89.647,604.116C111.524,638.112,149.849,654.667,190.257,655.905" fill="rgba(63, 63, 63, 0.4392156862745098)" class="triangle-float3"></path><path d="M35.38532769240144-86.12309255043002L-15.143001681982149 45.50770576002327 116.48779662847113 96.03603513440686 167.01612600285472-35.59476317604643z" fill="rgba(63, 63, 63, 0.4392156862745098)" class="triangle-float3"></path><path d="M735.21,173.668C763.914,173.806,786.763,153.364,802.03,129.057C818.606,102.666,830.778,71.194,817.185,43.15C802.062,11.949,769.856,-10.177,735.21,-8.801C702.355,-7.497,677.986,19.585,663.784,49.241C651.533,74.821,655.373,103.823,669.493,128.42C683.684,153.141,706.705,173.531,735.21,173.668" fill="rgba(63, 63, 63, 0.4392156862745098)" class="triangle-float2"></path><path d="M1146.617,260.24C1196.881,261.165,1237.658,222.399,1260.534,177.632C1281.347,136.903,1278.587,88.444,1254.172,49.766C1231.34,13.594,1189.391,-3.117,1146.617,-2.835C1104.395,-2.556,1063.373,15.058,1041.493,51.17C1018.83,88.574,1020.09,134.498,1039.736,173.571C1061.821,217.493,1097.463,259.336,1146.617,260.24" fill="rgba(63, 63, 63, 0.4392156862745098)" class="triangle-float2"></path><path d="M525.969,471.852C567.606,473.714,603.691,442.759,621.696,405.17C637.59,371.989,625.342,335.011,606.712,303.286C588.39,272.086,562.128,243.459,525.969,242.156C487.87,240.783,452.295,263.375,434.48,297.081C417.686,328.855,427.34,365.383,444.008,397.223C462.375,432.308,486.407,470.083,525.969,471.852" fill="rgba(63, 63, 63, 0.4392156862745098)" class="triangle-float2"></path><path d="M1460.3293278045269 12.415696438255821L1372.9930048329811 21.595113875096274 1382.1724222698215 108.93143684664209 1469.5087452413673 99.75201940980163z" fill="rgba(63, 63, 63, 0.4392156862745098)" class="triangle-float3"></path><path d="M462.516,216.613C490.464,218.082,520.29,210.315,534.778,186.37C549.672,161.754,544.712,130.393,529.433,106.015C515.11,83.163,489.441,69.511,462.516,71.075C437.922,72.503,419.799,91.545,407.832,113.078C396.281,133.864,391.206,158.382,402.312,179.409C414.121,201.767,437.266,215.286,462.516,216.613" fill="rgba(63, 63, 63, 0.4392156862745098)" class="triangle-float3"></path><path d="M1364.421,492.541C1384.309,492.508,1398.631,475.518,1408.102,458.03C1417.034,441.536,1421.059,421.768,1411.485,405.639C1402.072,389.781,1382.861,384.652,1364.421,384.443C1345.517,384.229,1325.154,388.312,1315.477,404.553C1305.628,421.082,1311.137,441.36,1320.49,458.175C1330.177,475.589,1344.494,492.574,1364.421,492.541" fill="rgba(63, 63, 63, 0.4392156862745098)" class="triangle-float2"></path></g><defs><mask id="SvgjsMask1075"><rect width="1440" height="560" fill="#ffffff"></rect></mask><style>
            @keyframes float1 {
                0%{transform: translate(0, 0)}
                50%{transform: translate(-10px, 0)}
                100%{transform: translate(0, 0)}
            }

            .triangle-float1 {
                animation: float1 5s infinite;
            }

            @keyframes float2 {
                0%{transform: translate(0, 0)}
                50%{transform: translate(-5px, -5px)}
                100%{transform: translate(0, 0)}
            }

            .triangle-float2 {
                animation: float2 4s infinite;
            }

            @keyframes float3 {
                0%{transform: translate(0, 0)}
                50%{transform: translate(0, -10px)}
                100%{transform: translate(0, 0)}
            }

            .triangle-float3 {
                animation: float3 6s infinite;
            }
        </style></defs></svg>