<svg xmlns="http://www.w3.org/2000/svg" version="1.1" xmlns:xlink="http://www.w3.org/1999/xlink" xmlns:svgjs="http://svgjs.com/svgjs" width="1440" height="560" preserveAspectRatio="none" viewBox="0 0 1440 560"><g mask="url(&quot;#SvgjsMask1027&quot;)" fill="none"><rect width="1440" height="560" x="0" y="0" fill="rgba(31, 31, 31, 1)"></rect><path d="M67.77068833315568 520.4441410417392L191.1948370671762 606.8666603824167 277.6173564078538 483.4425116483962 154.19320767383323 397.01999230771867z" fill="rgba(63, 63, 63, 0.4392156862745098)" class="triangle-float2"></path><path d="M973.618,599.155C996.526,598.728,1011.825,578.298,1023.089,558.346C1034.103,538.837,1042.669,515.783,1031.723,496.236C1020.595,476.363,996.395,470.106,973.618,469.998C950.606,469.889,926.163,475.815,914.548,495.68C902.849,515.689,909.356,540.121,920.847,560.25C932.459,580.592,950.199,599.591,973.618,599.155" fill="rgba(63, 63, 63, 0.4392156862745098)" class="triangle-float1"></path><path d="M1312.7269032582726 417.1303298869448L1365.5648969907122 530.441773112002 1478.8763402157695 477.6037793795624 1426.0383464833299 364.2923361545052z" fill="rgba(63, 63, 63, 0.4392156862745098)" class="triangle-float3"></path><path d="M497.868,109.769C522.713,109.476,538.962,86.654,551.042,64.941C562.682,44.02,570.751,19.776,559.774,-1.5C547.992,-24.337,523.556,-38.815,497.868,-38.122C473.219,-37.457,453.051,-20.089,441.489,1.69C430.677,22.056,431.81,45.779,442.474,66.223C454.117,88.542,472.697,110.066,497.868,109.769" fill="rgba(63, 63, 63, 0.4392156862745098)" class="triangle-float2"></path><path d="M-113.15991748332775 158.8598324994312L-25.686573414195593 293.556970299186 109.0105643855592 206.08362623005382 21.53722031642704 71.38648843029905z" fill="rgba(63, 63, 63, 0.4392156862745098)" class="triangle-float2"></path><path d="M1067.1691148111934 307.77416275061876L1140.581484535372 389.3068593095593 1222.1141810943127 315.89448958538065 1148.701811370134 234.36179302644013z" fill="rgba(63, 63, 63, 0.4392156862745098)" class="triangle-float3"></path><path d="M1387.829,55.024C1405.73,54.682,1422.538,45.029,1430.719,29.103C1438.31,14.325,1433.262,-2.708,1424.839,-17.028C1416.564,-31.097,1404.151,-43.907,1387.829,-43.813C1371.628,-43.719,1360.031,-30.409,1351.552,-16.604C1342.511,-1.884,1334.2,15.385,1342.005,30.796C1350.372,47.316,1369.314,55.377,1387.829,55.024" fill="rgba(63, 63, 63, 0.4392156862745098)" class="triangle-float3"></path><path d="M933.1371300436135-102.4437025254488L801.4726725896915-29.46090200412175 874.4554731110185 102.20355544980038 1006.1199305649405 29.220754928473326z" fill="rgba(63, 63, 63, 0.4392156862745098)" class="triangle-float1"></path><path d="M57.252,422.981C94.767,422.229,131.085,404.927,149.079,372C166.44,340.231,159.148,301.946,140.28,271.048C122.289,241.587,91.768,221.094,57.252,221.625C23.568,222.143,-3.338,245.142,-21.465,273.537C-41.49,304.904,-58.527,342.89,-41.184,375.816C-23.011,410.318,18.264,423.763,57.252,422.981" fill="rgba(63, 63, 63, 0.4392156862745098)" class="triangle-float3"></path><path d="M471.829,58.189C495.126,59.271,515.803,43.604,526.854,23.067C537.346,3.568,535.585,-19.95,524.045,-38.848C512.996,-56.942,493.026,-66.625,471.829,-67.044C449.793,-67.48,426.51,-60.31,415.911,-40.986C405.6,-22.187,414.466,-0.34,424.997,18.337C435.787,37.474,449.884,57.17,471.829,58.189" fill="rgba(63, 63, 63, 0.4392156862745098)" class="triangle-float3"></path><path d="M441.437,427.309C479.737,425.719,514.379,408.819,536.462,377.486C563.227,339.51,587.455,291.925,565.834,250.803C543.284,207.914,489.869,195.234,441.437,196.753C395.951,198.18,352.694,218.84,329.863,258.206C306.957,297.701,306.541,347.88,331.685,385.989C354.759,420.961,399.575,429.047,441.437,427.309" fill="rgba(63, 63, 63, 0.4392156862745098)" class="triangle-float2"></path><path d="M148.6031663292561 428.9767613101414L23.74084969475095 474.42292794662296 69.18701633123254 599.2852445811282 194.0493329657377 553.8390779446465z" fill="rgba(63, 63, 63, 0.4392156862745098)" class="triangle-float2"></path></g><defs><mask id="SvgjsMask1027"><rect width="1440" height="560" fill="#ffffff"></rect></mask><style>
            @keyframes float1 {
                0%{transform: translate(0, 0)}
                50%{transform: translate(-10px, 0)}
                100%{transform: translate(0, 0)}
            }

            .triangle-float1 {
                animation: float1 5s infinite;
            }

            @keyframes float2 {
                0%{transform: translate(0, 0)}
                50%{transform: translate(-5px, -5px)}
                100%{transform: translate(0, 0)}
            }

            .triangle-float2 {
                animation: float2 4s infinite;
            }

            @keyframes float3 {
                0%{transform: translate(0, 0)}
                50%{transform: translate(0, -10px)}
                100%{transform: translate(0, 0)}
            }

            .triangle-float3 {
                animation: float3 6s infinite;
            }
        </style></defs></svg>