<svg xmlns="http://www.w3.org/2000/svg" version="1.1" xmlns:xlink="http://www.w3.org/1999/xlink" xmlns:svgjs="http://svgjs.com/svgjs" width="1920" height="1080" preserveAspectRatio="none" viewBox="0 0 1920 1080"><g mask="url(&quot;#SvgjsMask1061&quot;)" fill="none"><rect width="1920" height="1080" x="0" y="0" fill="rgba(4, 16, 27, 1)"></rect><path d="M262.615,463.073C353.788,465.642,430.902,399.609,473.262,318.833C512.637,243.749,505.355,154.966,462.58,81.766C420.224,9.283,346.564,-42.271,262.615,-41.645C179.643,-41.027,107.575,11.919,67.747,84.709C29.533,154.551,35.118,236.737,71.57,307.515C111.871,385.765,174.632,460.594,262.615,463.073" fill="rgba(28, 36, 61, 0.4)" class="triangle-float3"></path><path d="M1029.8054069320806-17.831394744237535L812.3839702994401 102.68727556109977 932.9026406047774 320.1087121937403 1150.324077237418 199.590041888403z" fill="rgba(28, 36, 61, 0.4)" class="triangle-float2"></path><path d="M1688.9555414740341 953.6364116148512L1491.2043010671557 717.5090135286384 1394.7183253438188 968.863573781815z" fill="rgba(28, 36, 61, 0.4)" class="triangle-float3"></path><path d="M1234.8175660125164 610.6522254113023L1413.7408602321711 718.1601867345744 1485.541155107252 396.021264743456z" fill="rgba(28, 36, 61, 0.4)" class="triangle-float2"></path><path d="M1608.1027124207703 346.7720398991092L1674.0511977014028 444.5446901087115 1787.7359303754902 296.73563708296183z" fill="rgba(28, 36, 61, 0.4)" class="triangle-float1"></path><path d="M932.8655848294992 694.44535798074L861.7886253862818 548.7159949865354 678.7330606165835 728.1961156484639z" fill="rgba(28, 36, 61, 0.4)" class="triangle-float2"></path><path d="M1442.7571782936325 406.05762721912913L1224.8378718391095 235.46570385214682 1186.9928057799393 474.4100470062088z" fill="rgba(28, 36, 61, 0.4)" class="triangle-float2"></path><path d="M1012.4444800602656 735.5649557795664L1290.5570394966858 655.8174626396008 1210.8095463567201 377.7049032031807 932.6969869203 457.4523963431463z" fill="rgba(28, 36, 61, 0.4)" class="triangle-float2"></path><path d="M446.59691269036387 889.8952125992605L757.7182991721472 961.723244316787 829.5463308896738 650.6018578350037 518.4249444078904 578.7738261174771z" fill="rgba(28, 36, 61, 0.4)" class="triangle-float2"></path><path d="M1327.025034313217 889.8485870657396L1251.1282487613566 734.2371160852404 1171.4135633327178 965.7453726175999z" fill="rgba(28, 36, 61, 0.4)" class="triangle-float1"></path><path d="M64.179,778.63C105.497,775.503,129.8,736.081,148.699,699.206C165.493,666.438,174.887,628.986,157.514,596.521C139.23,562.354,102.925,540.615,64.179,541.263C26.449,541.894,-3.623,567.731,-23.901,599.555C-46.26,634.644,-64.207,676.594,-45.843,713.929C-25.717,754.847,18.709,782.071,64.179,778.63" fill="rgba(28, 36, 61, 0.4)" class="triangle-float1"></path></g><defs><mask id="SvgjsMask1061"><rect width="1920" height="1080" fill="#ffffff"></rect></mask><style>
            @keyframes float1 {
                0%{transform: translate(0, 0)}
                50%{transform: translate(-10px, 0)}
                100%{transform: translate(0, 0)}
            }

            .triangle-float1 {
                animation: float1 5s infinite;
            }

            @keyframes float2 {
                0%{transform: translate(0, 0)}
                50%{transform: translate(-5px, -5px)}
                100%{transform: translate(0, 0)}
            }

            .triangle-float2 {
                animation: float2 4s infinite;
            }

            @keyframes float3 {
                0%{transform: translate(0, 0)}
                50%{transform: translate(0, -10px)}
                100%{transform: translate(0, 0)}
            }

            .triangle-float3 {
                animation: float3 6s infinite;
            }
        </style></defs></svg>